<?xml version="1.0" encoding="UTF-8"?>
<svg id="Layer_2" data-name="Layer 2" xmlns="http://www.w3.org/2000/svg" viewBox="0 0 323.57 77.34">
  <defs>
    <style>
      .cls-1 {
        fill: #ed1c24;
      }

      .cls-1, .cls-2 {
        stroke-width: 0px;
      }

      .cls-2 {
        fill: #040404;
      }
    </style>
  </defs>
  <g id="Layer_1-2" data-name="Layer 1">
    <g>
      <path class="cls-2" d="M0,75.6c3.07,0,5.02-2.97,5.02-7.68V14.03c0-4.71-1.95-7.68-5.02-7.68v-1.23h15.16c13.01-.1,24.48,6.45,24.48,19.97s-11.47,20.38-24.48,20.38h-1.95v22.43c0,4.71,1.95,7.68,5.02,7.68v1.23H0v-1.23ZM15.06,43.84c9.12.2,15.88-6.56,15.88-18.64S24.17,6.25,15.67,6.25h-2.46v37.59h1.84Z"/>
      <path class="cls-2" d="M42.71,29.4v-1.23l11.98-3.07h.2v36.67c0,6.86,3.07,11.06,8.2,11.06,3.58,0,7.78-5.12,7.78-9.53v-26.22c0-4.71-1.95-7.68-5.02-7.68v-1.23l11.98-3.07h.2v39.74c0,4.71,1.95,7.68,5.02,7.68v1.23l-12.19,3.07v-8.81c-1.74,5.43-6.35,9.32-11.47,9.32-6.97,0-11.68-5.33-11.68-13.11v-27.04c0-5.12-1.74-7.79-5.02-7.79Z"/>
      <path class="cls-2" d="M96.38,0h.92v67.91c0,4.71,1.95,7.68,5.02,7.68v1.23h-17.21v-1.23c3.07,0,5.02-2.97,5.02-7.68V11.98c0-4.71-1.95-7.68-5.02-7.68v-1.23l11.27-3.07Z"/>
      <path class="cls-2" d="M124.96,35.85c-2.25-5.33-4.81-9.73-9.63-9.73-3.48,0-5.53,3.07-5.53,6.97,0,5.74,4.1,9.53,8.71,13.21,5.94,4.81,12.7,9.42,12.7,18.34,0,7.38-6.04,12.7-14.44,12.7-5.94,0-11.68-2.77-15.26-7.48l5.94-5.43c.92,5.22,3.48,11.78,9.83,11.78,3.89,0,6.56-3.48,6.56-8.6,0-6.15-4.92-10.45-10.14-14.55-5.43-4.4-11.27-9.32-11.27-16.08s5.63-11.88,12.5-11.88c5.12,0,9.12,1.13,13.52,3.69l-3.48,7.07Z"/>
      <path class="cls-2" d="M164.91,49.27h-25.3c.51,14.85,6.25,23.87,14.75,23.87,4,0,6.04-1.54,9.53-7.07l1.03.51c-3.59,7.27-8.2,10.65-14.55,10.65-11.37,0-18.44-10.35-18.44-27.04,0-14.55,7.37-25.1,17.62-25.1,9.53,0,15.37,9.22,15.37,24.17ZM157.33,47.94c0-14.75-2.77-21.72-8.5-21.72s-9.63,9.32-9.22,21.72h17.72Z"/>
      <path class="cls-2" d="M165.01,75.6c3.07,0,5.02-2.97,5.02-7.68V14.03c0-4.71-1.95-7.68-5.02-7.68v-1.23h15.16c13.01-.1,24.48,6.45,24.48,19.97s-11.47,20.38-24.48,20.38h-1.95v22.43c0,4.71,1.95,7.68,5.02,7.68v1.23h-18.23v-1.23ZM180.06,43.84c9.12.2,15.88-6.56,15.88-18.64s-6.76-18.95-15.26-18.95h-2.46v37.59h1.84Z"/>
      <path class="cls-2" d="M221.65,25.09c-11.98,0-18.95,9.53-18.95,25.92s7.07,26.23,18.95,26.23,18.95-9.33,18.95-25.92-6.86-26.23-18.95-26.23ZM221.65,76.1c-7.07,0-11.17-9.12-11.17-24.78,0-17.21,3.49-25.09,11.17-25.09s11.27,8.39,11.27,25.51-3.39,24.37-11.27,24.37Z"/>
      <path class="cls-1" d="M221.83,29.84c-6.29,0-9.14,6.85-9.14,21.81,0,13.61,3.35,21.54,9.14,21.54,6.45,0,9.23-6.49,9.23-21.18s-3.02-22.17-9.23-22.17ZM221.91,66.06c-3.38,0-5.34-5.4-5.34-14.69,0-10.2,1.67-14.87,5.34-14.87s5.39,4.97,5.39,15.12-1.62,14.44-5.39,14.44Z"/>
      <path class="cls-1" d="M221.85,42.76c-2.64,0-3.83,2.77-3.83,8.81,0,5.5,1.41,8.7,3.83,8.7,2.7,0,3.87-2.62,3.87-8.55s-1.26-8.95-3.87-8.95ZM221.89,57.39c-1.42,0-2.24-2.18-2.24-5.93,0-4.12.7-6.01,2.24-6.01s2.26,2.01,2.26,6.1-.68,5.83-2.26,5.83Z"/>
      <path class="cls-2" d="M251.25,25.61h.2v42.3c0,4.71,1.95,7.68,5.02,7.68v1.23h-17.21v-1.23c3.07,0,5.02-2.97,5.02-7.68v-30.32c0-4.71-1.95-7.68-5.02-7.68v-1.23l11.98-3.07ZM245.82,9.83c2.36,0,4.2,1.95,4.2,4.3s-1.84,4.2-4.2,4.2-4.2-1.95-4.2-4.2,1.84-4.3,4.2-4.3Z"/>
      <path class="cls-2" d="M271.74,25.61v7.68c1.74-4.61,6.15-8.09,10.55-8.09,7.27,0,12.8,5.53,12.8,12.8v29.91c0,4.71,1.84,7.68,4.92,7.68v1.23h-17.11v-1.23c2.97,0,4.92-2.97,4.92-7.68v-27.35c0-6.86-2.97-10.86-8.09-10.96-4.4,0-7.99,3.89-7.99,8.71v29.6c0,4.71,1.95,7.68,5.02,7.68v1.23h-17.21v-1.23c3.07,0,5.02-2.97,5.02-7.68v-30.32c0-4.71-1.95-7.68-5.02-7.68v-1.23l12.19-3.07Z"/>
      <path class="cls-2" d="M323.57,69.45c-2.05,4.92-6.15,7.89-10.86,7.89-6.86,0-11.78-5.12-11.78-13.11V26.94h-4.81v-1.33h.51c6.15-.2,10.14-4.92,10.14-11.68h1.54v11.68h9.94v1.33h-9.94v35.85c0,6.66,2.56,11.06,7.68,11.06,2.77,0,4.51-1.23,6.86-4.92l.72.51Z"/>
    </g>
  </g>
</svg>